<?xml version="1.0" encoding="UTF-8"?>
<svg id="Layer_1" xmlns="http://www.w3.org/2000/svg" version="1.1" viewBox="0 0 655.4 371.7">
  <!-- Generator: Adobe Illustrator 29.0.1, SVG Export Plug-In . SVG Version: 2.1.0 Build 192)  -->
  <path d="M275.3,124.8c2.8-7.2-.8-15.1-7.9-17.9-7.1-2.8-15.1.8-17.9,7.9-27.7,69.6-76.3,164.9-143.9,201.3-16.9,9.3-57.4,19.9-69.9.7-4.4-6.9-4.6-16.2-1.8-24.1,6.2-17.5,20.1-31.7,33.8-44.1,7.2-6.7,15.1-12.3,21.9-19.4h0c1.7-1.9-1.2-4.5-3-2.6-6.8,6.5-15,11.9-22.3,18-18.9,15.6-39.1,35-41.7,60.9-1.6,34.7,34,43,61.7,37.8,76.2-14.2,133.2-100.2,166.6-164.5,8.9-17.6,17.2-35.5,24.3-54Z"/>
  <path d="M622.5,150.1c-56.4,5-112.6,10.1-168.6,18.8,4.4-9.4,8.6-18.9,12.6-28.5,14.2-34.6,24.9-70.8,32.6-107.2h0c1.5-8.9-11-11.8-13.6-3.3-6.6,23.5-14.1,46.6-23.2,69-6.7,16.8-14.6,33.3-22.8,49.4-4.4,8.5-9.1,16.9-13.8,25.3-42.2,7.6-84.1,18.3-125,31.4,1.4-2.4,2.8-4.8,4.1-7.2,17.3-30.2,35.9-60.6,47.7-93.6h-.1c1.8-5.1-5.5-7.7-7.4-2.8-.9,2.2-2.8,6.7-3.7,8.9-.8,1.7-3.3,7.1-4.1,8.7-12.7,25-29.3,47.5-45.5,70.5-5.6,8-11.3,16-16.9,24.1-4.1,1.4-8.2,2.9-12.3,4.3h0c-7.4,2.6-11.1,11-8,18.2.6,1.4,1.4,2.6,2.3,3.6-8.1,12.1-16.1,24.2-24.1,36.5-4.3,6.5-1.9,15.5,5.1,18.9,6.5,3.2,14.4.6,17.6-6l5.8-11.6c3.8-7.5,8-15.6,11.9-23,2.7-5,5.4-10.1,8.2-15.1,43.2-18.3,87.4-34,132.7-46.1-19.6,32.3-41.1,63.4-63,94.3-10.4,18.3,15,33.9,26.7,16.7,24.1-38.7,47.8-78,68.1-118.9,58.3-13.6,117.7-22.9,176.9-32.1.9-.1,1.4-.8,1.4-1.7,0-.9-.9-1.5-1.8-1.5Z"/>
</svg>