<?xml version="1.0" encoding="utf-8"?>
<!-- Generator: Adobe Illustrator 26.4.1, SVG Export Plug-In . SVG Version: 6.00 Build 0)  -->
<svg version="1.1" id="Layer_1" xmlns="http://www.w3.org/2000/svg" xmlns:xlink="http://www.w3.org/1999/xlink" x="0px" y="0px"
	 viewBox="0 0 154 36" style="enable-background:new 0 0 154 36;" xml:space="preserve">
<g>
	<path fill="currentColor" d="M115.4,21.2c-0.5,0-0.9,0-1.4,0c-0.3,0-0.5-0.1-0.5-0.4c0-0.4-0.1-0.8-0.2-1.3c-0.1-0.6-0.4-0.8-1-0.8
		c-0.3,0-0.6,0-1,0c-0.2,0-0.3,0.1-0.3,0.3c0,0.6,0,1.3,0,1.9c0,0.3-0.1,0.3-0.3,0.3c-0.4,0-0.8,0-1.3,0c-0.2,0-0.2-0.1-0.2-0.2
		c0-2.1,0-4.3,0-6.4c0-0.2,0.1-0.3,0.3-0.3c1.2,0,2.4,0,3.6,0c0.3,0,0.6,0.1,0.9,0.2c0.6,0.3,1.1,0.7,1.2,1.4c0.1,0.9-0.2,1.5-1,2.1
		c0.9,0.4,0.9,1.3,1,2.1c0,0.4,0,0.7,0.2,1.1C115.4,21.1,115.4,21.2,115.4,21.2z M112,15.8C112,15.8,112,15.8,112,15.8
		c-0.2,0-0.5,0-0.7,0c-0.2,0-0.2,0.1-0.2,0.2c0,0.3,0,0.7,0,1c0,0.1,0,0.2,0.2,0.2c0.5,0,1,0,1.5,0c0.4,0,0.6-0.4,0.6-0.8
		c0-0.4-0.3-0.7-0.7-0.7C112.5,15.8,112.3,15.8,112,15.8z"/>
	<path fill="currentColor" d="M53.3,23.2c-0.1-0.3,0-0.5,0.2-0.6c0.2-0.1,0.4-0.3,0.6-0.4c0.3-0.2,0.4-0.5,0.1-0.7c-0.7-0.6-1.4-1.3-2.2-1.9
		c-0.2-0.2-0.3-0.3-0.3-0.6c0-0.1,0-0.2,0-0.3c0.1-0.7-0.3-1.2-0.6-1.6c-0.1-0.2-1.4,0.1-1.4,0.3c0,0.2,0,0.3,0,0.5
		c0,0.6,0,1.2,0,1.7c0,0.3-0.1,0.4-0.3,0.4c-0.3,0-0.1-0.2-0.1-0.4c0-0.6,0-1.3,0-1.9c0-0.3-0.1-0.4-0.4-0.3
		c-0.4,0.1-0.8,0.2-1.2,0.2c-0.3,0-0.4,0.2-0.4,0.5c0,0.7,0,1.4,0,2.2c0,0.1,0,0.3-0.1,0.3c-0.2,0.1-0.4,0.1-0.4-0.2
		c0-0.8,0-1.6,0-2.3c0-0.2,0-0.3-0.3-0.3c-0.3,0.1-0.7,0.1-1.1,0.2c-0.2,0-0.3,0.1-0.3,0.4c0,0.8,0,1.6,0,2.4c0,0.4-0.1,0.6-0.5,0.6
		c0-0.7,0-1.4,0-2.1c0-0.7,0.1-1.5-0.1-2.2c-0.2-1.1-1.1-1.4-1.9-1.5c-0.2,0-0.2,0.2-0.2,0.3c0,0.7,0,1.4,0,2.1c0,1.8,0,3.5,0,5.3
		c0,0.3,0.1,0.5,0.3,0.7c1.7,1.6,3.3,3.3,5,4.9c0.2,0.2,0.3,0.4,0.3,0.7c0,1,0,2,0,3c0,0.2,0,0.3-0.3,0.3c-2.3-0.3-4.6-0.8-6.8-1.6
		c-0.2-0.1-0.3-0.2-0.3-0.4c-0.6-1.4-0.9-2.9-1.2-4.4c-0.3-2-0.5-3.9-0.6-5.9c-0.1-1.4-0.1-2.8,0-4.3c0.1-2,0.4-3.9,0.9-5.8
		c0.4-1.5,0.8-3,1.3-4.5c0.1-0.2,0.2-0.3,0.4-0.4c1.7-0.9,3.5-1.3,5.4-1.5c2.5-0.3,5-0.3,7.5-0.2c2.4,0.1,4.7,0.4,7,1.3
		C62,5,62.5,5.5,62.8,6.5c0.5,2.1,1.1,4.1,1.5,6.2c0.2,1.2,0.3,2.4,0.4,3.7c0,1.6,0,3.2-0.1,4.8c-0.2,3-0.6,5.9-1.5,8.8
		c-0.2,0.6-0.5,1-1.2,1.2c-2.1,0.7-4.2,1.2-6.4,1.4c-0.1,0-0.2,0-0.3,0c-0.3,0-0.4-0.1-0.4-0.3c0-0.9,0-1.9,0-2.8
		c0-0.2,0.1-0.3,0.2-0.5c1.2-1.7,2.3-3.5,3.5-5.2c0.1-0.2,0.2-0.4,0.2-0.7c0-1.8,0-3.5,0-5.3c0-0.3-0.1-0.4-0.4-0.4
		c-0.3,0.1-0.7,0.1-1,0.2C56.4,18,56,18.6,56,19.4c0,0.6,0,1.2,0,1.8c0,0.2,0,0.3-0.2,0.4c-0.8,0.5-1.6,1.1-2.5,1.6
		C53.4,23.2,53.3,23.2,53.3,23.2z M54.4,11.9c0.4,0.3,0.6,0.5,0.9,0.7c0.1,0.1,0.3,0.2,0.3,0.3c0,0.6,0,1.2,0,1.7
		c-0.4-0.4-0.8-0.8-1.2-1.2c-0.2-0.2-0.3-0.2-0.5-0.2c-1.3,0.2-2.5,0.5-3.8,0.7c-0.4,0.1-0.3,0.2-0.1,0.4c1.2,1.5,2.3,3.1,3.4,4.6
		c0.1,0.2,0.3,0.3,0.5,0.2c0.5-0.1,1.1-0.2,1.6-0.2c0.1,0,0.2-0.1,0.2-0.2c0.3-1.1,1.2-1.6,2.3-1.7c0.9-0.1,0.9-0.1,0.9,0.8
		c0,0.4,0,0.5,0.5,0.4c0.8-0.1,1.7-0.3,2.5-0.5c0.2,0,0.4-0.1,0.1-0.3c-0.2-0.2-0.3-0.4-0.4-0.5c-1.1-1.4-2.1-2.7-3.2-4.1
		c-0.2-0.2-0.3-0.2-0.6-0.2c-0.2,0.1-0.2,0.3-0.2,0.4c0,0.4,0,0.8,0,1.2c0,0.2-0.1,0.2-0.3,0.3c-0.2,0-0.1-0.1-0.1-0.2
		c0-0.2,0-0.4,0-0.5c0.2-0.9-0.2-1.5-1-1.8c-0.2-0.1-0.3-0.2-0.5-0.2C55.4,11.8,55,11.8,54.4,11.9z M45.6,8.2c0,0.5,0,1.1,0,1.6
		c0,0.7,0,0.7,0.7,0.7c0.9,0,0.9,0,0.9-0.9c0-0.8,0-0.8,0.8-0.7c0.2,0,0.2,0.1,0.2,0.2c0,0.4,0,0.7,0,1.1c0,0.2,0.1,0.3,0.3,0.3
		c0.4,0,0.7,0,1.1,0c0.3,0,0.3-0.1,0.3-0.4c0-1.2,0-2.4,0-3.5c0-0.8,0-0.8-0.8-0.8c-0.9,0-0.9,0-0.9,0.9c0,0.8,0,0.7-0.8,0.7
		c-0.2,0-0.3-0.1-0.3-0.3c0-0.3,0-0.6,0-0.9c0-0.3-0.1-0.4-0.4-0.4c-0.3,0-0.7,0-1,0c-0.3,0-0.3,0.1-0.3,0.3
		C45.6,6.8,45.6,7.5,45.6,8.2z M57.3,10.6c0.2,0,0.5,0,0.7,0c0.2,0,0.3-0.1,0.2-0.3c-0.5-1.4-1-2.8-1.5-4.2
		c-0.1-0.2-0.1-0.2-0.3-0.2c-0.5,0-1,0-1.5,0c-0.2,0-0.2,0.1-0.3,0.2c-0.5,1.4-1,2.8-1.5,4.2c-0.1,0.3,0,0.3,0.2,0.3
		c0.4,0,0.8,0,1.2,0c0.2,0,0.4,0,0.4-0.3c0-0.2,0.1-0.3,0.4-0.3c0.2,0,0.5,0,0.7,0c0.2,0,0.3,0,0.3,0.2c0,0.3,0.2,0.4,0.5,0.4
		C57,10.5,57.2,10.6,57.3,10.6z M50.9,8.2c0,0.7,0,1.4,0,2c0,0.3,0.1,0.3,0.3,0.3c0.4,0,0.7,0,1.1,0c0.2,0,0.3-0.1,0.3-0.3
		c0-1.4,0-2.7,0-4.1c0-0.2-0.1-0.3-0.3-0.3c-0.4,0-0.7,0-1.1,0c-0.2,0-0.3,0.1-0.3,0.3C50.9,6.8,50.9,7.5,50.9,8.2z M45.1,16.9
		c0.4-0.3,0.7-0.6,1-0.8c0.6-0.4,0.8-0.8,0.7-1.5c0-0.2,0-0.5,0-0.8c0-0.9-0.4-1.4-1.3-1.5c-0.3,0-0.4,0-0.4,0.3c0,1.2,0,2.3,0,3.5
		C45.1,16.4,45.1,16.6,45.1,16.9z M45.8,17C45.8,17,45.8,17.1,45.8,17c1.5-0.2,3-0.5,4.5-0.7c0.2,0,0.2-0.1,0.1-0.3
		c-0.3-0.4-0.6-0.8-0.9-1.2c-0.4-0.5-0.4-0.5-0.9-0.1C47.7,15.5,46.8,16.2,45.8,17z M47.3,15.1c0.7-0.6,1.2-1,1.8-1.5
		c0,0,0.1-0.1,0.1-0.1c0.2-0.8-0.1-1.5-0.9-1.8c-0.2-0.1-0.5-0.2-0.8-0.2c-0.2,0-0.3,0-0.3,0.2C47.3,12.7,47.3,13.8,47.3,15.1z
		 M49.7,12.7c0,0.2,0,0.3,0,0.5c0,0.2,0,0.3,0.3,0.2c0.4-0.1,0.9-0.2,1.4-0.2c0.4,0,0.3-0.2,0.2-0.4c-0.2-0.4-0.6-0.5-1-0.6
		C49.7,11.9,49.7,11.9,49.7,12.7z"/>
	<path fill="currentColor" d="M78.1,16.4c-0.2,0.6-0.4,1.3-0.5,1.9c-0.2,0.9-0.5,1.7-0.7,2.6c-0.1,0.3-0.2,0.4-0.5,0.4c-1,0-1,0-1.3-1
		c-0.4-1.3-0.7-2.7-1.2-4c0,0.1,0,0.3,0,0.4c0,1.4,0,2.8,0,4.2c0,0.3-0.1,0.4-0.4,0.4c-0.3,0-0.7,0-1,0c-0.3,0-0.4-0.1-0.4-0.3
		c0-2.1,0-4.2,0-6.3c0-0.2,0.1-0.3,0.3-0.3c0.7,0,1.4,0,2.1,0c0.2,0,0.3,0.1,0.4,0.3c0.3,1.3,0.7,2.5,1,3.8c0,0.1,0.1,0.2,0.1,0.3
		c0.1-0.1,0.1-0.2,0.1-0.3c0.3-1.3,0.7-2.5,1-3.8c0.1-0.2,0.1-0.3,0.4-0.3c0.7,0,1.4,0,2.1,0c0.3,0,0.3,0.1,0.3,0.3
		c0,2.1,0,4.2,0,6.2c0,0.3-0.1,0.4-0.3,0.4c-0.3,0-0.7,0-1,0c-0.3,0-0.4-0.1-0.4-0.4c0-1.3,0-2.7,0-4C78.2,16.7,78.2,16.5,78.1,16.4
		C78.1,16.4,78.1,16.4,78.1,16.4z"/>
	<path fill="currentColor" d="M89,16.4c0,1.5,0,2.9,0,4.4c0,0.4-0.1,0.5-0.5,0.5c-0.3,0-0.6,0-1,0c-0.2,0-0.3-0.1-0.3-0.3c0-2.1,0-4.2,0-6.3
		c0-0.2,0.1-0.3,0.3-0.3c0.7,0,1.4,0,2.1,0c0.2,0,0.3,0.1,0.4,0.3c0.3,1.3,0.7,2.6,1,3.9c0,0.1,0.1,0.2,0.1,0.4
		c0.3-1,0.5-1.9,0.7-2.8c0.1-0.5,0.3-1,0.4-1.5c0-0.2,0.1-0.3,0.3-0.3c0.7,0,1.4,0,2.1,0c0.2,0,0.3,0.1,0.3,0.3c0,2.1,0,4.2,0,6.3
		c0,0.2-0.1,0.4-0.3,0.3c-0.4,0-0.7,0-1.1,0c-0.3,0-0.3-0.1-0.3-0.4c0-1.4,0-2.8,0-4.2c0-0.1,0-0.3,0-0.4c0,0,0,0-0.1,0
		c-0.2,0.8-0.4,1.5-0.6,2.3c-0.2,0.8-0.4,1.6-0.6,2.4c-0.1,0.2-0.2,0.3-0.4,0.3c-1.1,0-1,0-1.3-1c-0.3-1.2-0.7-2.4-1-3.7
		C89.2,16.5,89.2,16.4,89,16.4C89.1,16.4,89.1,16.4,89,16.4z"/>
	<path fill="currentColor" d="M101,17.4c1.3,0.8,1.5,2.4,0.4,3.2c-0.4,0.3-0.9,0.5-1.4,0.5c-1.2,0-2.4,0-3.7,0c-0.2,0-0.3-0.1-0.3-0.3
		c0-2.1,0-4.2,0-6.3c0-0.2,0.1-0.3,0.3-0.3c1.2,0,2.3,0,3.5,0c0.3,0,0.6,0.1,0.8,0.2c1.3,0.4,1.4,2.1,0.6,2.7
		C101.2,17.3,101.1,17.3,101,17.4z M98.8,19.7c0.2,0,0.5,0,0.7,0c0.5-0.1,0.8-0.3,0.8-0.8c0-0.5-0.3-0.7-0.8-0.8c-0.3,0-0.6,0-0.9,0
		c-0.7,0-0.7,0-0.7,0.7C97.9,19.8,97.9,19.8,98.8,19.7z M98.7,17c0.2,0,0.5,0,0.7,0c0.4,0,0.6-0.3,0.6-0.7c0-0.4-0.3-0.6-0.6-0.6
		c-0.3,0-0.7,0-1,0c-0.5,0-0.5,0-0.5,0.5C97.9,17,97.9,17,98.7,17z"/>
	<path fill="currentColor" d="M83.7,21.2c-0.8,0-1.6,0-2.5,0c-0.2,0-0.3,0-0.3-0.3c0-2.1,0-4.2,0-6.3c0-0.2,0.1-0.3,0.3-0.3
		c1.6,0,3.3,0,4.9,0c0.2,0,0.3,0.1,0.3,0.3c0,0.3,0,0.5,0,0.8c0,0.3-0.1,0.4-0.4,0.4c-1,0-2,0-2.9,0c-0.3,0-0.4,0.1-0.4,0.4
		c0,0.8,0,0.8,0.7,0.8c0.8,0,1.6,0,2.3,0c0.2,0,0.3,0.1,0.3,0.3c0,1.1,0,1.1-1.1,1.1c-0.7,0-1.3,0-2,0c-0.2,0-0.3,0.1-0.3,0.3
		c0,1-0.1,1,0.9,1c0.8,0,1.7,0,2.5,0c0.3,0,0.3,0.1,0.3,0.3c0,0.3,0,0.6,0,0.9c0,0.3-0.1,0.3-0.4,0.3C85.3,21.2,84.5,21.2,83.7,21.2
		z"/>
	<path fill="currentColor" d="M102.9,17.8c0-1,0-2.1,0-3.1c0-0.3,0.1-0.3,0.3-0.3c1.6,0,3.2,0,4.9,0c0.3,0,0.4,0.1,0.3,0.3
		c0,0.2,0,0.5,0,0.7c0,0.3-0.1,0.4-0.4,0.4c-1,0-2,0-3,0c-0.3,0-0.4,0.1-0.4,0.4c0,0.8,0,0.8,0.8,0.8c0.8,0,1.5,0,2.3,0
		c0.3,0,0.3,0.1,0.3,0.3c0,0.4,0.1,0.8-0.1,1c-0.2,0.2-0.7,0.1-1,0.1c-0.7,0-1.3,0-2,0c-0.3,0-0.3,0.1-0.3,0.3c0,0.9,0,0.9,0.9,0.9
		c0.9,0,1.7,0,2.6,0c0.2,0,0.4,0,0.4,0.3c0,0.4,0.2,0.9-0.1,1.2c-0.3,0.2-0.8,0.1-1.2,0.1c-1.3,0-2.7,0-4,0c-0.3,0-0.4-0.1-0.4-0.4
		C102.9,19.8,102.9,18.8,102.9,17.8z"/>
	<path fill="currentColor" d="M55.7,7.5c0.1,0.4,0.2,0.7,0.3,1.1c0,0.1,0.1,0.2,0,0.2c-0.2,0-0.3,0-0.5,0c-0.1,0-0.1-0.1,0-0.2
		C55.5,8.3,55.5,7.9,55.7,7.5C55.6,7.5,55.7,7.5,55.7,7.5z"/>
</g>
</svg>
